<?xml version="1.0" encoding="UTF-8" standalone="no"?>
<!DOCTYPE svg PUBLIC "-//W3C//DTD SVG 1.1//EN"
 "http://www.w3.org/Graphics/SVG/1.1/DTD/svg11.dtd">
<!-- Generated by graphviz version 2.43.0 (0)
 -->
<!-- Title: %3 Pages: 1 -->
<svg width="931pt" height="548pt"
 viewBox="0.00 0.00 931.00 548.00" xmlns="http://www.w3.org/2000/svg" xmlns:xlink="http://www.w3.org/1999/xlink">
<g id="graph0" class="graph" transform="scale(1 1) rotate(0) translate(4 544)">
<title>%3</title>
<polygon fill="white" stroke="transparent" points="-4,4 -4,-544 927,-544 927,4 -4,4"/>
<!-- [root] aws_eip.web&#45;eip&#45;1 (expand) -->
<g id="node1" class="node">
<title>[root] aws_eip.web&#45;eip&#45;1 (expand)</title>
<polygon fill="none" stroke="black" points="399,-396 253,-396 253,-360 399,-360 399,-396"/>
<text text-anchor="middle" x="326" y="-374.3" font-family="Times,serif" font-size="14.00">aws_eip.web&#45;eip&#45;1</text>
</g>
<!-- [root] aws_instance.web&#45;server&#45;1 (expand) -->
<g id="node2" class="node">
<title>[root] aws_instance.web&#45;server&#45;1 (expand)</title>
<polygon fill="none" stroke="black" points="273.5,-324 64.5,-324 64.5,-288 273.5,-288 273.5,-324"/>
<text text-anchor="middle" x="169" y="-302.3" font-family="Times,serif" font-size="14.00">aws_instance.web&#45;server&#45;1</text>
</g>
<!-- [root] aws_eip.web&#45;eip&#45;1 (expand)&#45;&gt;[root] aws_instance.web&#45;server&#45;1 (expand) -->
<g id="edge1" class="edge">
<title>[root] aws_eip.web&#45;eip&#45;1 (expand)&#45;&gt;[root] aws_instance.web&#45;server&#45;1 (expand)</title>
<path fill="none" stroke="black" d="M287.59,-359.88C266.13,-350.31 239.2,-338.3 216.43,-328.15"/>
<polygon fill="black" stroke="black" points="217.84,-324.94 207.28,-324.07 214.99,-331.34 217.84,-324.94"/>
</g>
<!-- [root] aws_internet_gateway.prod&#45;internet&#45;gw&#45;1 (expand) -->
<g id="node3" class="node">
<title>[root] aws_internet_gateway.prod&#45;internet&#45;gw&#45;1 (expand)</title>
<polygon fill="none" stroke="black" points="620,-252 308,-252 308,-216 620,-216 620,-252"/>
<text text-anchor="middle" x="464" y="-230.3" font-family="Times,serif" font-size="14.00">aws_internet_gateway.prod&#45;internet&#45;gw&#45;1</text>
</g>
<!-- [root] aws_eip.web&#45;eip&#45;1 (expand)&#45;&gt;[root] aws_internet_gateway.prod&#45;internet&#45;gw&#45;1 (expand) -->
<g id="edge2" class="edge">
<title>[root] aws_eip.web&#45;eip&#45;1 (expand)&#45;&gt;[root] aws_internet_gateway.prod&#45;internet&#45;gw&#45;1 (expand)</title>
<path fill="none" stroke="black" d="M325.27,-359.99C325.33,-340.51 328.29,-308.62 345,-288 356.13,-274.27 371.56,-263.98 387.62,-256.31"/>
<polygon fill="black" stroke="black" points="389.4,-259.35 397.12,-252.1 386.56,-252.95 389.4,-259.35"/>
</g>
<!-- [root] aws_network_interface.web&#45;server&#45;nic (expand) -->
<g id="node6" class="node">
<title>[root] aws_network_interface.web&#45;server&#45;nic (expand)</title>
<polygon fill="none" stroke="black" points="290,-252 0,-252 0,-216 290,-216 290,-252"/>
<text text-anchor="middle" x="145" y="-230.3" font-family="Times,serif" font-size="14.00">aws_network_interface.web&#45;server&#45;nic</text>
</g>
<!-- [root] aws_instance.web&#45;server&#45;1 (expand)&#45;&gt;[root] aws_network_interface.web&#45;server&#45;nic (expand) -->
<g id="edge3" class="edge">
<title>[root] aws_instance.web&#45;server&#45;1 (expand)&#45;&gt;[root] aws_network_interface.web&#45;server&#45;nic (expand)</title>
<path fill="none" stroke="black" d="M163.07,-287.7C160.39,-279.9 157.17,-270.51 154.2,-261.83"/>
<polygon fill="black" stroke="black" points="157.42,-260.43 150.86,-252.1 150.8,-262.7 157.42,-260.43"/>
</g>
<!-- [root] aws_vpc.prod&#45;vpc&#45;1 (expand) -->
<g id="node11" class="node">
<title>[root] aws_vpc.prod&#45;vpc&#45;1 (expand)</title>
<polygon fill="none" stroke="black" points="589,-108 433,-108 433,-72 589,-72 589,-108"/>
<text text-anchor="middle" x="511" y="-86.3" font-family="Times,serif" font-size="14.00">aws_vpc.prod&#45;vpc&#45;1</text>
</g>
<!-- [root] aws_internet_gateway.prod&#45;internet&#45;gw&#45;1 (expand)&#45;&gt;[root] aws_vpc.prod&#45;vpc&#45;1 (expand) -->
<g id="edge4" class="edge">
<title>[root] aws_internet_gateway.prod&#45;internet&#45;gw&#45;1 (expand)&#45;&gt;[root] aws_vpc.prod&#45;vpc&#45;1 (expand)</title>
<path fill="none" stroke="black" d="M459.83,-215.92C456.18,-197.49 452.76,-167.6 462,-144 466.2,-133.28 473.69,-123.43 481.58,-115.2"/>
<polygon fill="black" stroke="black" points="484.12,-117.61 488.85,-108.13 479.24,-112.59 484.12,-117.61"/>
</g>
<!-- [root] aws_network_acl.web&#45;nacl&#45;1 (expand) -->
<g id="node4" class="node">
<title>[root] aws_network_acl.web&#45;nacl&#45;1 (expand)</title>
<polygon fill="none" stroke="black" points="923,-180 705,-180 705,-144 923,-144 923,-180"/>
<text text-anchor="middle" x="814" y="-158.3" font-family="Times,serif" font-size="14.00">aws_network_acl.web&#45;nacl&#45;1</text>
</g>
<!-- [root] aws_network_acl.web&#45;nacl&#45;1 (expand)&#45;&gt;[root] aws_vpc.prod&#45;vpc&#45;1 (expand) -->
<g id="edge5" class="edge">
<title>[root] aws_network_acl.web&#45;nacl&#45;1 (expand)&#45;&gt;[root] aws_vpc.prod&#45;vpc&#45;1 (expand)</title>
<path fill="none" stroke="black" d="M740.27,-143.97C696.28,-133.8 640.3,-120.87 594.67,-110.33"/>
<polygon fill="black" stroke="black" points="595.33,-106.89 584.8,-108.05 593.76,-113.71 595.33,-106.89"/>
</g>
<!-- [root] aws_network_acl_association.b (expand) -->
<g id="node5" class="node">
<title>[root] aws_network_acl_association.b (expand)</title>
<polygon fill="none" stroke="black" points="912,-252 676,-252 676,-216 912,-216 912,-252"/>
<text text-anchor="middle" x="794" y="-230.3" font-family="Times,serif" font-size="14.00">aws_network_acl_association.b</text>
</g>
<!-- [root] aws_network_acl_association.b (expand)&#45;&gt;[root] aws_network_acl.web&#45;nacl&#45;1 (expand) -->
<g id="edge6" class="edge">
<title>[root] aws_network_acl_association.b (expand)&#45;&gt;[root] aws_network_acl.web&#45;nacl&#45;1 (expand)</title>
<path fill="none" stroke="black" d="M798.94,-215.7C801.17,-207.9 803.85,-198.51 806.33,-189.83"/>
<polygon fill="black" stroke="black" points="809.73,-190.68 809.11,-180.1 803,-188.76 809.73,-190.68"/>
</g>
<!-- [root] aws_subnet.public&#45;subnet&#45;1 (expand) -->
<g id="node10" class="node">
<title>[root] aws_subnet.public&#45;subnet&#45;1 (expand)</title>
<polygon fill="none" stroke="black" points="686.5,-180 471.5,-180 471.5,-144 686.5,-144 686.5,-180"/>
<text text-anchor="middle" x="579" y="-158.3" font-family="Times,serif" font-size="14.00">aws_subnet.public&#45;subnet&#45;1</text>
</g>
<!-- [root] aws_network_acl_association.b (expand)&#45;&gt;[root] aws_subnet.public&#45;subnet&#45;1 (expand) -->
<g id="edge7" class="edge">
<title>[root] aws_network_acl_association.b (expand)&#45;&gt;[root] aws_subnet.public&#45;subnet&#45;1 (expand)</title>
<path fill="none" stroke="black" d="M741.68,-215.97C711.38,-206.1 673.05,-193.62 641.21,-183.25"/>
<polygon fill="black" stroke="black" points="642.15,-179.88 631.55,-180.11 639.98,-186.53 642.15,-179.88"/>
</g>
<!-- [root] aws_security_group.allow&#45;web&#45;1 (expand) -->
<g id="node9" class="node">
<title>[root] aws_security_group.allow&#45;web&#45;1 (expand)</title>
<polygon fill="none" stroke="black" points="351.5,-180 104.5,-180 104.5,-144 351.5,-144 351.5,-180"/>
<text text-anchor="middle" x="228" y="-158.3" font-family="Times,serif" font-size="14.00">aws_security_group.allow&#45;web&#45;1</text>
</g>
<!-- [root] aws_network_interface.web&#45;server&#45;nic (expand)&#45;&gt;[root] aws_security_group.allow&#45;web&#45;1 (expand) -->
<g id="edge8" class="edge">
<title>[root] aws_network_interface.web&#45;server&#45;nic (expand)&#45;&gt;[root] aws_security_group.allow&#45;web&#45;1 (expand)</title>
<path fill="none" stroke="black" d="M165.52,-215.7C175.87,-206.97 188.59,-196.24 199.84,-186.75"/>
<polygon fill="black" stroke="black" points="202.33,-189.23 207.72,-180.1 197.82,-183.88 202.33,-189.23"/>
</g>
<!-- [root] aws_network_interface.web&#45;server&#45;nic (expand)&#45;&gt;[root] aws_subnet.public&#45;subnet&#45;1 (expand) -->
<g id="edge9" class="edge">
<title>[root] aws_network_interface.web&#45;server&#45;nic (expand)&#45;&gt;[root] aws_subnet.public&#45;subnet&#45;1 (expand)</title>
<path fill="none" stroke="black" d="M250.61,-215.97C314.93,-205.59 397.16,-192.33 463.24,-181.67"/>
<polygon fill="black" stroke="black" points="463.97,-185.1 473.29,-180.05 462.86,-178.19 463.97,-185.1"/>
</g>
<!-- [root] aws_route_table.prod&#45;route&#45;table&#45;1 (expand) -->
<g id="node7" class="node">
<title>[root] aws_route_table.prod&#45;route&#45;table&#45;1 (expand)</title>
<polygon fill="none" stroke="black" points="620,-324 354,-324 354,-288 620,-288 620,-324"/>
<text text-anchor="middle" x="487" y="-302.3" font-family="Times,serif" font-size="14.00">aws_route_table.prod&#45;route&#45;table&#45;1</text>
</g>
<!-- [root] aws_route_table.prod&#45;route&#45;table&#45;1 (expand)&#45;&gt;[root] aws_internet_gateway.prod&#45;internet&#45;gw&#45;1 (expand) -->
<g id="edge10" class="edge">
<title>[root] aws_route_table.prod&#45;route&#45;table&#45;1 (expand)&#45;&gt;[root] aws_internet_gateway.prod&#45;internet&#45;gw&#45;1 (expand)</title>
<path fill="none" stroke="black" d="M481.31,-287.7C478.75,-279.9 475.67,-270.51 472.82,-261.83"/>
<polygon fill="black" stroke="black" points="476.07,-260.51 469.62,-252.1 469.42,-262.7 476.07,-260.51"/>
</g>
<!-- [root] aws_route_table_association.a (expand) -->
<g id="node8" class="node">
<title>[root] aws_route_table_association.a (expand)</title>
<polygon fill="none" stroke="black" points="679.5,-396 448.5,-396 448.5,-360 679.5,-360 679.5,-396"/>
<text text-anchor="middle" x="564" y="-374.3" font-family="Times,serif" font-size="14.00">aws_route_table_association.a</text>
</g>
<!-- [root] aws_route_table_association.a (expand)&#45;&gt;[root] aws_route_table.prod&#45;route&#45;table&#45;1 (expand) -->
<g id="edge11" class="edge">
<title>[root] aws_route_table_association.a (expand)&#45;&gt;[root] aws_route_table.prod&#45;route&#45;table&#45;1 (expand)</title>
<path fill="none" stroke="black" d="M544.97,-359.7C535.46,-351.05 523.79,-340.45 513.43,-331.03"/>
<polygon fill="black" stroke="black" points="515.57,-328.24 505.81,-324.1 510.86,-333.42 515.57,-328.24"/>
</g>
<!-- [root] aws_route_table_association.a (expand)&#45;&gt;[root] aws_subnet.public&#45;subnet&#45;1 (expand) -->
<g id="edge12" class="edge">
<title>[root] aws_route_table_association.a (expand)&#45;&gt;[root] aws_subnet.public&#45;subnet&#45;1 (expand)</title>
<path fill="none" stroke="black" d="M595.58,-359.78C608.45,-350.93 621.94,-338.86 629,-324 649.59,-280.64 646.72,-260.61 629,-216 624.71,-205.2 617.06,-195.32 609.01,-187.1"/>
<polygon fill="black" stroke="black" points="611.25,-184.4 601.6,-180.04 606.42,-189.47 611.25,-184.4"/>
</g>
<!-- [root] aws_security_group.allow&#45;web&#45;1 (expand)&#45;&gt;[root] aws_vpc.prod&#45;vpc&#45;1 (expand) -->
<g id="edge13" class="edge">
<title>[root] aws_security_group.allow&#45;web&#45;1 (expand)&#45;&gt;[root] aws_vpc.prod&#45;vpc&#45;1 (expand)</title>
<path fill="none" stroke="black" d="M296.87,-143.97C337.7,-133.87 389.6,-121.03 432.08,-110.52"/>
<polygon fill="black" stroke="black" points="432.96,-113.91 441.82,-108.11 431.28,-107.11 432.96,-113.91"/>
</g>
<!-- [root] aws_subnet.public&#45;subnet&#45;1 (expand)&#45;&gt;[root] aws_vpc.prod&#45;vpc&#45;1 (expand) -->
<g id="edge14" class="edge">
<title>[root] aws_subnet.public&#45;subnet&#45;1 (expand)&#45;&gt;[root] aws_vpc.prod&#45;vpc&#45;1 (expand)</title>
<path fill="none" stroke="black" d="M562.19,-143.7C553.87,-135.14 543.69,-124.66 534.61,-115.3"/>
<polygon fill="black" stroke="black" points="537.09,-112.84 527.62,-108.1 532.07,-117.72 537.09,-112.84"/>
</g>
<!-- [root] provider[&quot;registry.terraform.io/hashicorp/aws&quot;] -->
<g id="node12" class="node">
<title>[root] provider[&quot;registry.terraform.io/hashicorp/aws&quot;]</title>
<polygon fill="none" stroke="black" points="511,-36 185.74,-18 511,0 836.26,-18 511,-36"/>
<text text-anchor="middle" x="511" y="-14.3" font-family="Times,serif" font-size="14.00">provider[&quot;registry.terraform.io/hashicorp/aws&quot;]</text>
</g>
<!-- [root] aws_vpc.prod&#45;vpc&#45;1 (expand)&#45;&gt;[root] provider[&quot;registry.terraform.io/hashicorp/aws&quot;] -->
<g id="edge15" class="edge">
<title>[root] aws_vpc.prod&#45;vpc&#45;1 (expand)&#45;&gt;[root] provider[&quot;registry.terraform.io/hashicorp/aws&quot;]</title>
<path fill="none" stroke="black" d="M511,-71.7C511,-63.98 511,-54.71 511,-46.11"/>
<polygon fill="black" stroke="black" points="514.5,-46.1 511,-36.1 507.5,-46.1 514.5,-46.1"/>
</g>
<!-- [root] provider[&quot;registry.terraform.io/hashicorp/aws&quot;] (close) -->
<g id="node13" class="node">
<title>[root] provider[&quot;registry.terraform.io/hashicorp/aws&quot;] (close)</title>
<ellipse fill="none" stroke="black" cx="564" cy="-450" rx="291.65" ry="18"/>
<text text-anchor="middle" x="564" y="-446.3" font-family="Times,serif" font-size="14.00">[root] provider[&quot;registry.terraform.io/hashicorp/aws&quot;] (close)</text>
</g>
<!-- [root] provider[&quot;registry.terraform.io/hashicorp/aws&quot;] (close)&#45;&gt;[root] aws_eip.web&#45;eip&#45;1 (expand) -->
<g id="edge16" class="edge">
<title>[root] provider[&quot;registry.terraform.io/hashicorp/aws&quot;] (close)&#45;&gt;[root] aws_eip.web&#45;eip&#45;1 (expand)</title>
<path fill="none" stroke="black" d="M507.3,-432.32C473.24,-422.31 429.7,-409.5 393.82,-398.95"/>
<polygon fill="black" stroke="black" points="394.5,-395.5 383.92,-396.04 392.53,-402.22 394.5,-395.5"/>
</g>
<!-- [root] provider[&quot;registry.terraform.io/hashicorp/aws&quot;] (close)&#45;&gt;[root] aws_network_acl_association.b (expand) -->
<g id="edge17" class="edge">
<title>[root] provider[&quot;registry.terraform.io/hashicorp/aws&quot;] (close)&#45;&gt;[root] aws_network_acl_association.b (expand)</title>
<path fill="none" stroke="black" d="M621.9,-432.25C644.2,-423.85 668.87,-411.99 688,-396 733.06,-358.33 766.16,-296.65 782.52,-261.57"/>
<polygon fill="black" stroke="black" points="785.72,-262.98 786.68,-252.43 779.35,-260.08 785.72,-262.98"/>
</g>
<!-- [root] provider[&quot;registry.terraform.io/hashicorp/aws&quot;] (close)&#45;&gt;[root] aws_route_table_association.a (expand) -->
<g id="edge18" class="edge">
<title>[root] provider[&quot;registry.terraform.io/hashicorp/aws&quot;] (close)&#45;&gt;[root] aws_route_table_association.a (expand)</title>
<path fill="none" stroke="black" d="M564,-431.7C564,-423.98 564,-414.71 564,-406.11"/>
<polygon fill="black" stroke="black" points="567.5,-406.1 564,-396.1 560.5,-406.1 567.5,-406.1"/>
</g>
<!-- [root] root -->
<g id="node14" class="node">
<title>[root] root</title>
<ellipse fill="none" stroke="black" cx="564" cy="-522" rx="58.49" ry="18"/>
<text text-anchor="middle" x="564" y="-518.3" font-family="Times,serif" font-size="14.00">[root] root</text>
</g>
<!-- [root] root&#45;&gt;[root] provider[&quot;registry.terraform.io/hashicorp/aws&quot;] (close) -->
<g id="edge19" class="edge">
<title>[root] root&#45;&gt;[root] provider[&quot;registry.terraform.io/hashicorp/aws&quot;] (close)</title>
<path fill="none" stroke="black" d="M564,-503.7C564,-495.98 564,-486.71 564,-478.11"/>
<polygon fill="black" stroke="black" points="567.5,-478.1 564,-468.1 560.5,-478.1 567.5,-478.1"/>
</g>
</g>
</svg>
