<?xml version="1.0" encoding="UTF-8" standalone="no"?>
<!DOCTYPE svg PUBLIC "-//W3C//DTD SVG 1.1//EN"
 "http://www.w3.org/Graphics/SVG/1.1/DTD/svg11.dtd">
<!-- Generated by graphviz version 2.43.0 (0)
 -->
<!-- Title: %3 Pages: 1 -->
<svg width="886pt" height="476pt"
 viewBox="0.00 0.00 885.61 476.00" xmlns="http://www.w3.org/2000/svg" xmlns:xlink="http://www.w3.org/1999/xlink">
<g id="graph0" class="graph" transform="scale(1 1) rotate(0) translate(4 472)">
<title>%3</title>
<polygon fill="white" stroke="transparent" points="-4,4 -4,-472 881.61,-472 881.61,4 -4,4"/>
<!-- [root] aws_eip.web&#45;eip&#45;1 (expand) -->
<g id="node1" class="node">
<title>[root] aws_eip.web&#45;eip&#45;1 (expand)</title>
<polygon fill="none" stroke="black" points="468.82,-324 322.82,-324 322.82,-288 468.82,-288 468.82,-324"/>
<text text-anchor="middle" x="395.82" y="-302.3" font-family="Times,serif" font-size="14.00">aws_eip.web&#45;eip&#45;1</text>
</g>
<!-- [root] aws_internet_gateway.prod&#45;internet&#45;gw&#45;1 (expand) -->
<g id="node3" class="node">
<title>[root] aws_internet_gateway.prod&#45;internet&#45;gw&#45;1 (expand)</title>
<polygon fill="none" stroke="black" points="344.82,-180 32.82,-180 32.82,-144 344.82,-144 344.82,-180"/>
<text text-anchor="middle" x="188.82" y="-158.3" font-family="Times,serif" font-size="14.00">aws_internet_gateway.prod&#45;internet&#45;gw&#45;1</text>
</g>
<!-- [root] aws_eip.web&#45;eip&#45;1 (expand)&#45;&gt;[root] aws_internet_gateway.prod&#45;internet&#45;gw&#45;1 (expand) -->
<g id="edge1" class="edge">
<title>[root] aws_eip.web&#45;eip&#45;1 (expand)&#45;&gt;[root] aws_internet_gateway.prod&#45;internet&#45;gw&#45;1 (expand)</title>
<path fill="none" stroke="black" d="M387.33,-287.92C376.67,-268.06 356.59,-235.53 330.82,-216 312.37,-202.01 289.83,-191.38 268.19,-183.45"/>
<polygon fill="black" stroke="black" points="269.26,-180.11 258.66,-180.1 266.94,-186.72 269.26,-180.11"/>
</g>
<!-- [root] aws_network_interface.web&#45;server&#45;nic (expand) -->
<g id="node4" class="node">
<title>[root] aws_network_interface.web&#45;server&#45;nic (expand)</title>
<polygon fill="none" stroke="black" points="723.82,-252 433.82,-252 433.82,-216 723.82,-216 723.82,-252"/>
<text text-anchor="middle" x="578.82" y="-230.3" font-family="Times,serif" font-size="14.00">aws_network_interface.web&#45;server&#45;nic</text>
</g>
<!-- [root] aws_eip.web&#45;eip&#45;1 (expand)&#45;&gt;[root] aws_network_interface.web&#45;server&#45;nic (expand) -->
<g id="edge2" class="edge">
<title>[root] aws_eip.web&#45;eip&#45;1 (expand)&#45;&gt;[root] aws_network_interface.web&#45;server&#45;nic (expand)</title>
<path fill="none" stroke="black" d="M440.59,-287.88C465.94,-278.18 497.83,-265.98 524.6,-255.74"/>
<polygon fill="black" stroke="black" points="526.11,-258.91 534.2,-252.07 523.61,-252.37 526.11,-258.91"/>
</g>
<!-- [root] aws_instance.web&#45;server&#45;1 (expand) -->
<g id="node2" class="node">
<title>[root] aws_instance.web&#45;server&#45;1 (expand)</title>
<polygon fill="none" stroke="black" points="696.32,-324 487.32,-324 487.32,-288 696.32,-288 696.32,-324"/>
<text text-anchor="middle" x="591.82" y="-302.3" font-family="Times,serif" font-size="14.00">aws_instance.web&#45;server&#45;1</text>
</g>
<!-- [root] aws_instance.web&#45;server&#45;1 (expand)&#45;&gt;[root] aws_network_interface.web&#45;server&#45;nic (expand) -->
<g id="edge3" class="edge">
<title>[root] aws_instance.web&#45;server&#45;1 (expand)&#45;&gt;[root] aws_network_interface.web&#45;server&#45;nic (expand)</title>
<path fill="none" stroke="black" d="M588.61,-287.7C587.18,-279.98 585.46,-270.71 583.86,-262.11"/>
<polygon fill="black" stroke="black" points="587.27,-261.3 582,-252.1 580.39,-262.58 587.27,-261.3"/>
</g>
<!-- [root] aws_vpc.prod&#45;vpc&#45;1 (expand) -->
<g id="node9" class="node">
<title>[root] aws_vpc.prod&#45;vpc&#45;1 (expand)</title>
<polygon fill="none" stroke="black" points="548.82,-108 392.82,-108 392.82,-72 548.82,-72 548.82,-108"/>
<text text-anchor="middle" x="470.82" y="-86.3" font-family="Times,serif" font-size="14.00">aws_vpc.prod&#45;vpc&#45;1</text>
</g>
<!-- [root] aws_internet_gateway.prod&#45;internet&#45;gw&#45;1 (expand)&#45;&gt;[root] aws_vpc.prod&#45;vpc&#45;1 (expand) -->
<g id="edge4" class="edge">
<title>[root] aws_internet_gateway.prod&#45;internet&#45;gw&#45;1 (expand)&#45;&gt;[root] aws_vpc.prod&#45;vpc&#45;1 (expand)</title>
<path fill="none" stroke="black" d="M257.45,-143.97C298.14,-133.87 349.85,-121.03 392.18,-110.52"/>
<polygon fill="black" stroke="black" points="393.03,-113.92 401.89,-108.11 391.34,-107.12 393.03,-113.92"/>
</g>
<!-- [root] aws_security_group.allow&#45;web&#45;1 (expand) -->
<g id="node7" class="node">
<title>[root] aws_security_group.allow&#45;web&#45;1 (expand)</title>
<polygon fill="none" stroke="black" points="843.32,-180 596.32,-180 596.32,-144 843.32,-144 843.32,-180"/>
<text text-anchor="middle" x="719.82" y="-158.3" font-family="Times,serif" font-size="14.00">aws_security_group.allow&#45;web&#45;1</text>
</g>
<!-- [root] aws_network_interface.web&#45;server&#45;nic (expand)&#45;&gt;[root] aws_security_group.allow&#45;web&#45;1 (expand) -->
<g id="edge5" class="edge">
<title>[root] aws_network_interface.web&#45;server&#45;nic (expand)&#45;&gt;[root] aws_security_group.allow&#45;web&#45;1 (expand)</title>
<path fill="none" stroke="black" d="M613.32,-215.88C632.26,-206.47 655.96,-194.71 676.18,-184.67"/>
<polygon fill="black" stroke="black" points="677.8,-187.77 685.2,-180.19 674.69,-181.5 677.8,-187.77"/>
</g>
<!-- [root] aws_subnet.public&#45;subnet&#45;1 (expand) -->
<g id="node8" class="node">
<title>[root] aws_subnet.public&#45;subnet&#45;1 (expand)</title>
<polygon fill="none" stroke="black" points="578.32,-180 363.32,-180 363.32,-144 578.32,-144 578.32,-180"/>
<text text-anchor="middle" x="470.82" y="-158.3" font-family="Times,serif" font-size="14.00">aws_subnet.public&#45;subnet&#45;1</text>
</g>
<!-- [root] aws_network_interface.web&#45;server&#45;nic (expand)&#45;&gt;[root] aws_subnet.public&#45;subnet&#45;1 (expand) -->
<g id="edge6" class="edge">
<title>[root] aws_network_interface.web&#45;server&#45;nic (expand)&#45;&gt;[root] aws_subnet.public&#45;subnet&#45;1 (expand)</title>
<path fill="none" stroke="black" d="M552.4,-215.88C538.41,-206.81 521.05,-195.55 505.94,-185.76"/>
<polygon fill="black" stroke="black" points="507.64,-182.69 497.35,-180.19 503.83,-188.57 507.64,-182.69"/>
</g>
<!-- [root] aws_route_table.prod&#45;route&#45;table&#45;1 (expand) -->
<g id="node5" class="node">
<title>[root] aws_route_table.prod&#45;route&#45;table&#45;1 (expand)</title>
<polygon fill="none" stroke="black" points="321.82,-252 55.82,-252 55.82,-216 321.82,-216 321.82,-252"/>
<text text-anchor="middle" x="188.82" y="-230.3" font-family="Times,serif" font-size="14.00">aws_route_table.prod&#45;route&#45;table&#45;1</text>
</g>
<!-- [root] aws_route_table.prod&#45;route&#45;table&#45;1 (expand)&#45;&gt;[root] aws_internet_gateway.prod&#45;internet&#45;gw&#45;1 (expand) -->
<g id="edge7" class="edge">
<title>[root] aws_route_table.prod&#45;route&#45;table&#45;1 (expand)&#45;&gt;[root] aws_internet_gateway.prod&#45;internet&#45;gw&#45;1 (expand)</title>
<path fill="none" stroke="black" d="M188.82,-215.7C188.82,-207.98 188.82,-198.71 188.82,-190.11"/>
<polygon fill="black" stroke="black" points="192.32,-190.1 188.82,-180.1 185.32,-190.1 192.32,-190.1"/>
</g>
<!-- [root] aws_route_table_association.a (expand) -->
<g id="node6" class="node">
<title>[root] aws_route_table_association.a (expand)</title>
<polygon fill="none" stroke="black" points="304.32,-324 73.32,-324 73.32,-288 304.32,-288 304.32,-324"/>
<text text-anchor="middle" x="188.82" y="-302.3" font-family="Times,serif" font-size="14.00">aws_route_table_association.a</text>
</g>
<!-- [root] aws_route_table_association.a (expand)&#45;&gt;[root] aws_route_table.prod&#45;route&#45;table&#45;1 (expand) -->
<g id="edge8" class="edge">
<title>[root] aws_route_table_association.a (expand)&#45;&gt;[root] aws_route_table.prod&#45;route&#45;table&#45;1 (expand)</title>
<path fill="none" stroke="black" d="M188.82,-287.7C188.82,-279.98 188.82,-270.71 188.82,-262.11"/>
<polygon fill="black" stroke="black" points="192.32,-262.1 188.82,-252.1 185.32,-262.1 192.32,-262.1"/>
</g>
<!-- [root] aws_route_table_association.a (expand)&#45;&gt;[root] aws_subnet.public&#45;subnet&#45;1 (expand) -->
<g id="edge9" class="edge">
<title>[root] aws_route_table_association.a (expand)&#45;&gt;[root] aws_subnet.public&#45;subnet&#45;1 (expand)</title>
<path fill="none" stroke="black" d="M242.54,-287.93C269.59,-278.59 302.55,-266.07 330.82,-252 369.68,-232.66 411.3,-205.25 438.97,-185.97"/>
<polygon fill="black" stroke="black" points="441.27,-188.64 447.44,-180.02 437.25,-182.91 441.27,-188.64"/>
</g>
<!-- [root] aws_security_group.allow&#45;web&#45;1 (expand)&#45;&gt;[root] aws_vpc.prod&#45;vpc&#45;1 (expand) -->
<g id="edge10" class="edge">
<title>[root] aws_security_group.allow&#45;web&#45;1 (expand)&#45;&gt;[root] aws_vpc.prod&#45;vpc&#45;1 (expand)</title>
<path fill="none" stroke="black" d="M659.23,-143.97C623.68,-133.97 578.6,-121.3 541.45,-110.85"/>
<polygon fill="black" stroke="black" points="542.26,-107.45 531.69,-108.11 540.37,-114.19 542.26,-107.45"/>
</g>
<!-- [root] aws_subnet.public&#45;subnet&#45;1 (expand)&#45;&gt;[root] aws_vpc.prod&#45;vpc&#45;1 (expand) -->
<g id="edge11" class="edge">
<title>[root] aws_subnet.public&#45;subnet&#45;1 (expand)&#45;&gt;[root] aws_vpc.prod&#45;vpc&#45;1 (expand)</title>
<path fill="none" stroke="black" d="M470.82,-143.7C470.82,-135.98 470.82,-126.71 470.82,-118.11"/>
<polygon fill="black" stroke="black" points="474.32,-118.1 470.82,-108.1 467.32,-118.1 474.32,-118.1"/>
</g>
<!-- [root] provider[&quot;registry.terraform.io/hashicorp/aws&quot;] -->
<g id="node10" class="node">
<title>[root] provider[&quot;registry.terraform.io/hashicorp/aws&quot;]</title>
<polygon fill="none" stroke="black" points="470.82,-36 145.56,-18 470.82,0 796.09,-18 470.82,-36"/>
<text text-anchor="middle" x="470.82" y="-14.3" font-family="Times,serif" font-size="14.00">provider[&quot;registry.terraform.io/hashicorp/aws&quot;]</text>
</g>
<!-- [root] aws_vpc.prod&#45;vpc&#45;1 (expand)&#45;&gt;[root] provider[&quot;registry.terraform.io/hashicorp/aws&quot;] -->
<g id="edge12" class="edge">
<title>[root] aws_vpc.prod&#45;vpc&#45;1 (expand)&#45;&gt;[root] provider[&quot;registry.terraform.io/hashicorp/aws&quot;]</title>
<path fill="none" stroke="black" d="M470.82,-71.7C470.82,-63.98 470.82,-54.71 470.82,-46.11"/>
<polygon fill="black" stroke="black" points="474.32,-46.1 470.82,-36.1 467.32,-46.1 474.32,-46.1"/>
</g>
<!-- [root] output.DNS (expand) -->
<g id="node11" class="node">
<title>[root] output.DNS (expand)</title>
<ellipse fill="none" stroke="black" cx="739.82" cy="-378" rx="137.58" ry="18"/>
<text text-anchor="middle" x="739.82" y="-374.3" font-family="Times,serif" font-size="14.00">[root] output.DNS (expand)</text>
</g>
<!-- [root] output.DNS (expand)&#45;&gt;[root] aws_instance.web&#45;server&#45;1 (expand) -->
<g id="edge13" class="edge">
<title>[root] output.DNS (expand)&#45;&gt;[root] aws_instance.web&#45;server&#45;1 (expand)</title>
<path fill="none" stroke="black" d="M704.75,-360.41C684.48,-350.82 658.76,-338.66 636.99,-328.36"/>
<polygon fill="black" stroke="black" points="638.47,-325.19 627.93,-324.08 635.48,-331.52 638.47,-325.19"/>
</g>
<!-- [root] provider[&quot;registry.terraform.io/hashicorp/aws&quot;] (close) -->
<g id="node12" class="node">
<title>[root] provider[&quot;registry.terraform.io/hashicorp/aws&quot;] (close)</title>
<ellipse fill="none" stroke="black" cx="291.82" cy="-378" rx="291.65" ry="18"/>
<text text-anchor="middle" x="291.82" y="-374.3" font-family="Times,serif" font-size="14.00">[root] provider[&quot;registry.terraform.io/hashicorp/aws&quot;] (close)</text>
</g>
<!-- [root] provider[&quot;registry.terraform.io/hashicorp/aws&quot;] (close)&#45;&gt;[root] aws_eip.web&#45;eip&#45;1 (expand) -->
<g id="edge14" class="edge">
<title>[root] provider[&quot;registry.terraform.io/hashicorp/aws&quot;] (close)&#45;&gt;[root] aws_eip.web&#45;eip&#45;1 (expand)</title>
<path fill="none" stroke="black" d="M317,-360.05C330.57,-350.92 347.49,-339.53 362.18,-329.65"/>
<polygon fill="black" stroke="black" points="364.18,-332.52 370.52,-324.03 360.27,-326.71 364.18,-332.52"/>
</g>
<!-- [root] provider[&quot;registry.terraform.io/hashicorp/aws&quot;] (close)&#45;&gt;[root] aws_instance.web&#45;server&#45;1 (expand) -->
<g id="edge15" class="edge">
<title>[root] provider[&quot;registry.terraform.io/hashicorp/aws&quot;] (close)&#45;&gt;[root] aws_instance.web&#45;server&#45;1 (expand)</title>
<path fill="none" stroke="black" d="M362.54,-360.5C406.36,-350.28 462.84,-337.1 508.78,-326.38"/>
<polygon fill="black" stroke="black" points="509.77,-329.74 518.71,-324.06 508.18,-322.92 509.77,-329.74"/>
</g>
<!-- [root] provider[&quot;registry.terraform.io/hashicorp/aws&quot;] (close)&#45;&gt;[root] aws_route_table_association.a (expand) -->
<g id="edge16" class="edge">
<title>[root] provider[&quot;registry.terraform.io/hashicorp/aws&quot;] (close)&#45;&gt;[root] aws_route_table_association.a (expand)</title>
<path fill="none" stroke="black" d="M266.89,-360.05C253.58,-351.01 237.01,-339.74 222.56,-329.93"/>
<polygon fill="black" stroke="black" points="224.12,-326.76 213.88,-324.03 220.19,-332.55 224.12,-326.76"/>
</g>
<!-- [root] root -->
<g id="node13" class="node">
<title>[root] root</title>
<ellipse fill="none" stroke="black" cx="515.82" cy="-450" rx="58.49" ry="18"/>
<text text-anchor="middle" x="515.82" y="-446.3" font-family="Times,serif" font-size="14.00">[root] root</text>
</g>
<!-- [root] root&#45;&gt;[root] output.DNS (expand) -->
<g id="edge17" class="edge">
<title>[root] root&#45;&gt;[root] output.DNS (expand)</title>
<path fill="none" stroke="black" d="M555.36,-436.65C589.74,-425.9 640.1,-410.16 679.52,-397.84"/>
<polygon fill="black" stroke="black" points="680.79,-401.12 689.29,-394.79 678.7,-394.43 680.79,-401.12"/>
</g>
<!-- [root] root&#45;&gt;[root] provider[&quot;registry.terraform.io/hashicorp/aws&quot;] (close) -->
<g id="edge18" class="edge">
<title>[root] root&#45;&gt;[root] provider[&quot;registry.terraform.io/hashicorp/aws&quot;] (close)</title>
<path fill="none" stroke="black" d="M476.29,-436.65C442.83,-426.19 394.24,-411.01 355.33,-398.85"/>
<polygon fill="black" stroke="black" points="356.25,-395.47 345.67,-395.83 354.17,-402.15 356.25,-395.47"/>
</g>
</g>
</svg>
