<?xml version="1.0" encoding="UTF-8" standalone="no"?>
<!DOCTYPE svg PUBLIC "-//W3C//DTD SVG 1.1//EN"
 "http://www.w3.org/Graphics/SVG/1.1/DTD/svg11.dtd">
<!-- Generated by graphviz version 2.43.0 (0)
 -->
<!-- Title: %3 Pages: 1 -->
<svg width="1843pt" height="476pt"
 viewBox="0.00 0.00 1842.89 476.00" xmlns="http://www.w3.org/2000/svg" xmlns:xlink="http://www.w3.org/1999/xlink">
<g id="graph0" class="graph" transform="scale(1 1) rotate(0) translate(4 472)">
<title>%3</title>
<polygon fill="white" stroke="transparent" points="-4,4 -4,-472 1838.89,-472 1838.89,4 -4,4"/>
<!-- [root] aws_eip.web&#45;eip&#45;1 (expand) -->
<g id="node1" class="node">
<title>[root] aws_eip.web&#45;eip&#45;1 (expand)</title>
<polygon fill="none" stroke="black" points="1277.5,-324 1131.5,-324 1131.5,-288 1277.5,-288 1277.5,-324"/>
<text text-anchor="middle" x="1204.5" y="-302.3" font-family="Times,serif" font-size="14.00">aws_eip.web&#45;eip&#45;1</text>
</g>
<!-- [root] aws_internet_gateway.prod&#45;internet&#45;gw&#45;1 (expand) -->
<g id="node3" class="node">
<title>[root] aws_internet_gateway.prod&#45;internet&#45;gw&#45;1 (expand)</title>
<polygon fill="none" stroke="black" points="1372.5,-180 1060.5,-180 1060.5,-144 1372.5,-144 1372.5,-180"/>
<text text-anchor="middle" x="1216.5" y="-158.3" font-family="Times,serif" font-size="14.00">aws_internet_gateway.prod&#45;internet&#45;gw&#45;1</text>
</g>
<!-- [root] aws_eip.web&#45;eip&#45;1 (expand)&#45;&gt;[root] aws_internet_gateway.prod&#45;internet&#45;gw&#45;1 (expand) -->
<g id="edge1" class="edge">
<title>[root] aws_eip.web&#45;eip&#45;1 (expand)&#45;&gt;[root] aws_internet_gateway.prod&#45;internet&#45;gw&#45;1 (expand)</title>
<path fill="none" stroke="black" d="M1205.95,-287.87C1207.99,-263.67 1211.75,-219.21 1214.19,-190.39"/>
<polygon fill="black" stroke="black" points="1217.69,-190.45 1215.05,-180.19 1210.72,-189.86 1217.69,-190.45"/>
</g>
<!-- [root] aws_network_interface.web&#45;server&#45;nic (expand) -->
<g id="node4" class="node">
<title>[root] aws_network_interface.web&#45;server&#45;nic (expand)</title>
<polygon fill="none" stroke="black" points="1534.5,-252 1244.5,-252 1244.5,-216 1534.5,-216 1534.5,-252"/>
<text text-anchor="middle" x="1389.5" y="-230.3" font-family="Times,serif" font-size="14.00">aws_network_interface.web&#45;server&#45;nic</text>
</g>
<!-- [root] aws_eip.web&#45;eip&#45;1 (expand)&#45;&gt;[root] aws_network_interface.web&#45;server&#45;nic (expand) -->
<g id="edge2" class="edge">
<title>[root] aws_eip.web&#45;eip&#45;1 (expand)&#45;&gt;[root] aws_network_interface.web&#45;server&#45;nic (expand)</title>
<path fill="none" stroke="black" d="M1249.76,-287.88C1275.5,-278.14 1307.91,-265.87 1335.04,-255.61"/>
<polygon fill="black" stroke="black" points="1336.28,-258.88 1344.39,-252.07 1333.8,-252.33 1336.28,-258.88"/>
</g>
<!-- [root] aws_instance.web&#45;server&#45;1 (expand) -->
<g id="node2" class="node">
<title>[root] aws_instance.web&#45;server&#45;1 (expand)</title>
<polygon fill="none" stroke="black" points="1505,-324 1296,-324 1296,-288 1505,-288 1505,-324"/>
<text text-anchor="middle" x="1400.5" y="-302.3" font-family="Times,serif" font-size="14.00">aws_instance.web&#45;server&#45;1</text>
</g>
<!-- [root] aws_instance.web&#45;server&#45;1 (expand)&#45;&gt;[root] aws_network_interface.web&#45;server&#45;nic (expand) -->
<g id="edge3" class="edge">
<title>[root] aws_instance.web&#45;server&#45;1 (expand)&#45;&gt;[root] aws_network_interface.web&#45;server&#45;nic (expand)</title>
<path fill="none" stroke="black" d="M1397.78,-287.7C1396.57,-279.98 1395.11,-270.71 1393.76,-262.11"/>
<polygon fill="black" stroke="black" points="1397.2,-261.44 1392.19,-252.1 1390.28,-262.53 1397.2,-261.44"/>
</g>
<!-- [root] aws_vpc.prod&#45;vpc&#45;1 (expand) -->
<g id="node9" class="node">
<title>[root] aws_vpc.prod&#45;vpc&#45;1 (expand)</title>
<polygon fill="none" stroke="black" points="1294.5,-108 1138.5,-108 1138.5,-72 1294.5,-72 1294.5,-108"/>
<text text-anchor="middle" x="1216.5" y="-86.3" font-family="Times,serif" font-size="14.00">aws_vpc.prod&#45;vpc&#45;1</text>
</g>
<!-- [root] aws_internet_gateway.prod&#45;internet&#45;gw&#45;1 (expand)&#45;&gt;[root] aws_vpc.prod&#45;vpc&#45;1 (expand) -->
<g id="edge4" class="edge">
<title>[root] aws_internet_gateway.prod&#45;internet&#45;gw&#45;1 (expand)&#45;&gt;[root] aws_vpc.prod&#45;vpc&#45;1 (expand)</title>
<path fill="none" stroke="black" d="M1216.5,-143.7C1216.5,-135.98 1216.5,-126.71 1216.5,-118.11"/>
<polygon fill="black" stroke="black" points="1220,-118.1 1216.5,-108.1 1213,-118.1 1220,-118.1"/>
</g>
<!-- [root] aws_security_group.allow&#45;web&#45;1 (expand) -->
<g id="node7" class="node">
<title>[root] aws_security_group.allow&#45;web&#45;1 (expand)</title>
<polygon fill="none" stroke="black" points="891,-180 644,-180 644,-144 891,-144 891,-180"/>
<text text-anchor="middle" x="767.5" y="-158.3" font-family="Times,serif" font-size="14.00">aws_security_group.allow&#45;web&#45;1</text>
</g>
<!-- [root] aws_network_interface.web&#45;server&#45;nic (expand)&#45;&gt;[root] aws_security_group.allow&#45;web&#45;1 (expand) -->
<g id="edge5" class="edge">
<title>[root] aws_network_interface.web&#45;server&#45;nic (expand)&#45;&gt;[root] aws_security_group.allow&#45;web&#45;1 (expand)</title>
<path fill="none" stroke="black" d="M1244.45,-216.68C1140.75,-205.01 1002.24,-189.42 901.2,-178.05"/>
<polygon fill="black" stroke="black" points="901.57,-174.57 891.24,-176.93 900.79,-181.52 901.57,-174.57"/>
</g>
<!-- [root] aws_subnet.public&#45;subnet&#45;1 (expand) -->
<g id="node8" class="node">
<title>[root] aws_subnet.public&#45;subnet&#45;1 (expand)</title>
<polygon fill="none" stroke="black" points="1606,-180 1391,-180 1391,-144 1606,-144 1606,-180"/>
<text text-anchor="middle" x="1498.5" y="-158.3" font-family="Times,serif" font-size="14.00">aws_subnet.public&#45;subnet&#45;1</text>
</g>
<!-- [root] aws_network_interface.web&#45;server&#45;nic (expand)&#45;&gt;[root] aws_subnet.public&#45;subnet&#45;1 (expand) -->
<g id="edge6" class="edge">
<title>[root] aws_network_interface.web&#45;server&#45;nic (expand)&#45;&gt;[root] aws_subnet.public&#45;subnet&#45;1 (expand)</title>
<path fill="none" stroke="black" d="M1416.16,-215.88C1430.28,-206.81 1447.81,-195.55 1463.06,-185.76"/>
<polygon fill="black" stroke="black" points="1465.21,-188.54 1471.73,-180.19 1461.43,-182.65 1465.21,-188.54"/>
</g>
<!-- [root] aws_route_table.prod&#45;route&#45;table&#45;1 (expand) -->
<g id="node5" class="node">
<title>[root] aws_route_table.prod&#45;route&#45;table&#45;1 (expand)</title>
<polygon fill="none" stroke="black" points="1818.5,-252 1552.5,-252 1552.5,-216 1818.5,-216 1818.5,-252"/>
<text text-anchor="middle" x="1685.5" y="-230.3" font-family="Times,serif" font-size="14.00">aws_route_table.prod&#45;route&#45;table&#45;1</text>
</g>
<!-- [root] aws_route_table.prod&#45;route&#45;table&#45;1 (expand)&#45;&gt;[root] aws_internet_gateway.prod&#45;internet&#45;gw&#45;1 (expand) -->
<g id="edge7" class="edge">
<title>[root] aws_route_table.prod&#45;route&#45;table&#45;1 (expand)&#45;&gt;[root] aws_internet_gateway.prod&#45;internet&#45;gw&#45;1 (expand)</title>
<path fill="none" stroke="black" d="M1571.37,-215.97C1501.58,-205.55 1412.27,-192.22 1340.71,-181.54"/>
<polygon fill="black" stroke="black" points="1341.14,-178.06 1330.74,-180.05 1340.11,-184.99 1341.14,-178.06"/>
</g>
<!-- [root] aws_route_table_association.a (expand) -->
<g id="node6" class="node">
<title>[root] aws_route_table_association.a (expand)</title>
<polygon fill="none" stroke="black" points="1801,-324 1570,-324 1570,-288 1801,-288 1801,-324"/>
<text text-anchor="middle" x="1685.5" y="-302.3" font-family="Times,serif" font-size="14.00">aws_route_table_association.a</text>
</g>
<!-- [root] aws_route_table_association.a (expand)&#45;&gt;[root] aws_route_table.prod&#45;route&#45;table&#45;1 (expand) -->
<g id="edge8" class="edge">
<title>[root] aws_route_table_association.a (expand)&#45;&gt;[root] aws_route_table.prod&#45;route&#45;table&#45;1 (expand)</title>
<path fill="none" stroke="black" d="M1685.5,-287.7C1685.5,-279.98 1685.5,-270.71 1685.5,-262.11"/>
<polygon fill="black" stroke="black" points="1689,-262.1 1685.5,-252.1 1682,-262.1 1689,-262.1"/>
</g>
<!-- [root] aws_route_table_association.a (expand)&#45;&gt;[root] aws_subnet.public&#45;subnet&#45;1 (expand) -->
<g id="edge9" class="edge">
<title>[root] aws_route_table_association.a (expand)&#45;&gt;[root] aws_subnet.public&#45;subnet&#45;1 (expand)</title>
<path fill="none" stroke="black" d="M1779.74,-287.91C1798.5,-280.07 1815.95,-268.64 1827.5,-252 1836.62,-238.86 1837.88,-228.18 1827.5,-216 1800.42,-184.21 1699.23,-171.42 1616.15,-166.31"/>
<polygon fill="black" stroke="black" points="1616.3,-162.81 1606.11,-165.72 1615.89,-169.8 1616.3,-162.81"/>
</g>
<!-- [root] aws_security_group.allow&#45;web&#45;1 (expand)&#45;&gt;[root] aws_vpc.prod&#45;vpc&#45;1 (expand) -->
<g id="edge10" class="edge">
<title>[root] aws_security_group.allow&#45;web&#45;1 (expand)&#45;&gt;[root] aws_vpc.prod&#45;vpc&#45;1 (expand)</title>
<path fill="none" stroke="black" d="M876.76,-143.97C953.99,-131.93 1056.18,-115.99 1128.24,-104.76"/>
<polygon fill="black" stroke="black" points="1128.86,-108.2 1138.21,-103.21 1127.79,-101.29 1128.86,-108.2"/>
</g>
<!-- [root] aws_subnet.public&#45;subnet&#45;1 (expand)&#45;&gt;[root] aws_vpc.prod&#45;vpc&#45;1 (expand) -->
<g id="edge11" class="edge">
<title>[root] aws_subnet.public&#45;subnet&#45;1 (expand)&#45;&gt;[root] aws_vpc.prod&#45;vpc&#45;1 (expand)</title>
<path fill="none" stroke="black" d="M1429.88,-143.97C1389.19,-133.87 1337.47,-121.03 1295.14,-110.52"/>
<polygon fill="black" stroke="black" points="1295.98,-107.12 1285.43,-108.11 1294.29,-113.92 1295.98,-107.12"/>
</g>
<!-- [root] provider[&quot;registry.terraform.io/hashicorp/aws&quot;] -->
<g id="node14" class="node">
<title>[root] provider[&quot;registry.terraform.io/hashicorp/aws&quot;]</title>
<polygon fill="none" stroke="black" points="1216.5,-36 891.24,-18 1216.5,0 1541.76,-18 1216.5,-36"/>
<text text-anchor="middle" x="1216.5" y="-14.3" font-family="Times,serif" font-size="14.00">provider[&quot;registry.terraform.io/hashicorp/aws&quot;]</text>
</g>
<!-- [root] aws_vpc.prod&#45;vpc&#45;1 (expand)&#45;&gt;[root] provider[&quot;registry.terraform.io/hashicorp/aws&quot;] -->
<g id="edge12" class="edge">
<title>[root] aws_vpc.prod&#45;vpc&#45;1 (expand)&#45;&gt;[root] provider[&quot;registry.terraform.io/hashicorp/aws&quot;]</title>
<path fill="none" stroke="black" d="M1216.5,-71.7C1216.5,-63.98 1216.5,-54.71 1216.5,-46.11"/>
<polygon fill="black" stroke="black" points="1220,-46.1 1216.5,-36.1 1213,-46.1 1220,-46.1"/>
</g>
<!-- [root] aws_vpc_security_group_egress_rule.egress_all (expand) -->
<g id="node10" class="node">
<title>[root] aws_vpc_security_group_egress_rule.egress_all (expand)</title>
<polygon fill="none" stroke="black" points="792.5,-252 438.5,-252 438.5,-216 792.5,-216 792.5,-252"/>
<text text-anchor="middle" x="615.5" y="-230.3" font-family="Times,serif" font-size="14.00">aws_vpc_security_group_egress_rule.egress_all</text>
</g>
<!-- [root] aws_vpc_security_group_egress_rule.egress_all (expand)&#45;&gt;[root] aws_security_group.allow&#45;web&#45;1 (expand) -->
<g id="edge13" class="edge">
<title>[root] aws_vpc_security_group_egress_rule.egress_all (expand)&#45;&gt;[root] aws_security_group.allow&#45;web&#45;1 (expand)</title>
<path fill="none" stroke="black" d="M652.68,-215.88C673.37,-206.35 699.3,-194.41 721.28,-184.28"/>
<polygon fill="black" stroke="black" points="722.82,-187.43 730.44,-180.07 719.89,-181.07 722.82,-187.43"/>
</g>
<!-- [root] aws_vpc_security_group_ingress_rule.ingress_http (expand) -->
<g id="node11" class="node">
<title>[root] aws_vpc_security_group_ingress_rule.ingress_http (expand)</title>
<polygon fill="none" stroke="black" points="1188,-252 811,-252 811,-216 1188,-216 1188,-252"/>
<text text-anchor="middle" x="999.5" y="-230.3" font-family="Times,serif" font-size="14.00">aws_vpc_security_group_ingress_rule.ingress_http</text>
</g>
<!-- [root] aws_vpc_security_group_ingress_rule.ingress_http (expand)&#45;&gt;[root] aws_security_group.allow&#45;web&#45;1 (expand) -->
<g id="edge14" class="edge">
<title>[root] aws_vpc_security_group_ingress_rule.ingress_http (expand)&#45;&gt;[root] aws_security_group.allow&#45;web&#45;1 (expand)</title>
<path fill="none" stroke="black" d="M943.04,-215.97C910.2,-206.06 868.63,-193.51 834.19,-183.12"/>
<polygon fill="black" stroke="black" points="834.79,-179.65 824.21,-180.11 832.77,-186.35 834.79,-179.65"/>
</g>
<!-- [root] aws_vpc_security_group_ingress_rule.ingress_https (expand) -->
<g id="node12" class="node">
<title>[root] aws_vpc_security_group_ingress_rule.ingress_https (expand)</title>
<polygon fill="none" stroke="black" points="420,-252 35,-252 35,-216 420,-216 420,-252"/>
<text text-anchor="middle" x="227.5" y="-230.3" font-family="Times,serif" font-size="14.00">aws_vpc_security_group_ingress_rule.ingress_https</text>
</g>
<!-- [root] aws_vpc_security_group_ingress_rule.ingress_https (expand)&#45;&gt;[root] aws_security_group.allow&#45;web&#45;1 (expand) -->
<g id="edge15" class="edge">
<title>[root] aws_vpc_security_group_ingress_rule.ingress_https (expand)&#45;&gt;[root] aws_security_group.allow&#45;web&#45;1 (expand)</title>
<path fill="none" stroke="black" d="M358.91,-215.97C442.31,-205.15 549.91,-191.21 633.76,-180.34"/>
<polygon fill="black" stroke="black" points="634.39,-183.78 643.86,-179.03 633.49,-176.84 634.39,-183.78"/>
</g>
<!-- [root] aws_vpc_security_group_ingress_rule.ingress_ssh (expand) -->
<g id="node13" class="node">
<title>[root] aws_vpc_security_group_ingress_rule.ingress_ssh (expand)</title>
<polygon fill="none" stroke="black" points="371,-324 0,-324 0,-288 371,-288 371,-324"/>
<text text-anchor="middle" x="185.5" y="-302.3" font-family="Times,serif" font-size="14.00">aws_vpc_security_group_ingress_rule.ingress_ssh</text>
</g>
<!-- [root] aws_vpc_security_group_ingress_rule.ingress_ssh (expand)&#45;&gt;[root] aws_security_group.allow&#45;web&#45;1 (expand) -->
<g id="edge16" class="edge">
<title>[root] aws_vpc_security_group_ingress_rule.ingress_ssh (expand)&#45;&gt;[root] aws_security_group.allow&#45;web&#45;1 (expand)</title>
<path fill="none" stroke="black" d="M102.23,-287.96C48.64,-273.39 -5.64,-249.44 25.5,-216 65.96,-172.55 431.18,-164.17 633.7,-162.9"/>
<polygon fill="black" stroke="black" points="633.83,-166.4 643.81,-162.85 633.79,-159.4 633.83,-166.4"/>
</g>
<!-- [root] output.DNS (expand) -->
<g id="node15" class="node">
<title>[root] output.DNS (expand)</title>
<ellipse fill="none" stroke="black" cx="1409.5" cy="-378" rx="137.58" ry="18"/>
<text text-anchor="middle" x="1409.5" y="-374.3" font-family="Times,serif" font-size="14.00">[root] output.DNS (expand)</text>
</g>
<!-- [root] output.DNS (expand)&#45;&gt;[root] aws_instance.web&#45;server&#45;1 (expand) -->
<g id="edge17" class="edge">
<title>[root] output.DNS (expand)&#45;&gt;[root] aws_instance.web&#45;server&#45;1 (expand)</title>
<path fill="none" stroke="black" d="M1407.28,-359.7C1406.28,-351.98 1405.09,-342.71 1403.99,-334.11"/>
<polygon fill="black" stroke="black" points="1407.45,-333.58 1402.7,-324.1 1400.5,-334.47 1407.45,-333.58"/>
</g>
<!-- [root] provider[&quot;registry.terraform.io/hashicorp/aws&quot;] (close) -->
<g id="node16" class="node">
<title>[root] provider[&quot;registry.terraform.io/hashicorp/aws&quot;] (close)</title>
<ellipse fill="none" stroke="black" cx="961.5" cy="-378" rx="291.65" ry="18"/>
<text text-anchor="middle" x="961.5" y="-374.3" font-family="Times,serif" font-size="14.00">[root] provider[&quot;registry.terraform.io/hashicorp/aws&quot;] (close)</text>
</g>
<!-- [root] provider[&quot;registry.terraform.io/hashicorp/aws&quot;] (close)&#45;&gt;[root] aws_eip.web&#45;eip&#45;1 (expand) -->
<g id="edge18" class="edge">
<title>[root] provider[&quot;registry.terraform.io/hashicorp/aws&quot;] (close)&#45;&gt;[root] aws_eip.web&#45;eip&#45;1 (expand)</title>
<path fill="none" stroke="black" d="M1019.4,-360.32C1054.32,-350.26 1099,-337.39 1135.72,-326.81"/>
<polygon fill="black" stroke="black" points="1136.72,-330.17 1145.36,-324.04 1134.78,-323.44 1136.72,-330.17"/>
</g>
<!-- [root] provider[&quot;registry.terraform.io/hashicorp/aws&quot;] (close)&#45;&gt;[root] aws_instance.web&#45;server&#45;1 (expand) -->
<g id="edge19" class="edge">
<title>[root] provider[&quot;registry.terraform.io/hashicorp/aws&quot;] (close)&#45;&gt;[root] aws_instance.web&#45;server&#45;1 (expand)</title>
<path fill="none" stroke="black" d="M1061.39,-361.07C1128.07,-350.44 1215.95,-336.43 1285.54,-325.33"/>
<polygon fill="black" stroke="black" points="1286.35,-328.75 1295.67,-323.72 1285.24,-321.83 1286.35,-328.75"/>
</g>
<!-- [root] provider[&quot;registry.terraform.io/hashicorp/aws&quot;] (close)&#45;&gt;[root] aws_route_table_association.a (expand) -->
<g id="edge20" class="edge">
<title>[root] provider[&quot;registry.terraform.io/hashicorp/aws&quot;] (close)&#45;&gt;[root] aws_route_table_association.a (expand)</title>
<path fill="none" stroke="black" d="M1113.2,-362.61C1224.32,-352.03 1378.79,-337.25 1514.5,-324 1529.11,-322.57 1544.43,-321.07 1559.64,-319.56"/>
<polygon fill="black" stroke="black" points="1560,-323.05 1569.61,-318.58 1559.31,-316.08 1560,-323.05"/>
</g>
<!-- [root] provider[&quot;registry.terraform.io/hashicorp/aws&quot;] (close)&#45;&gt;[root] aws_vpc_security_group_egress_rule.egress_all (expand) -->
<g id="edge21" class="edge">
<title>[root] provider[&quot;registry.terraform.io/hashicorp/aws&quot;] (close)&#45;&gt;[root] aws_vpc_security_group_egress_rule.egress_all (expand)</title>
<path fill="none" stroke="black" d="M920.45,-360.15C857.02,-334.12 735.33,-284.18 666.4,-255.89"/>
<polygon fill="black" stroke="black" points="667.61,-252.6 657.03,-252.05 664.96,-259.08 667.61,-252.6"/>
</g>
<!-- [root] provider[&quot;registry.terraform.io/hashicorp/aws&quot;] (close)&#45;&gt;[root] aws_vpc_security_group_ingress_rule.ingress_http (expand) -->
<g id="edge22" class="edge">
<title>[root] provider[&quot;registry.terraform.io/hashicorp/aws&quot;] (close)&#45;&gt;[root] aws_vpc_security_group_ingress_rule.ingress_http (expand)</title>
<path fill="none" stroke="black" d="M966.08,-359.87C972.59,-335.56 984.56,-290.82 992.27,-262.01"/>
<polygon fill="black" stroke="black" points="995.7,-262.75 994.9,-252.19 988.93,-260.94 995.7,-262.75"/>
</g>
<!-- [root] provider[&quot;registry.terraform.io/hashicorp/aws&quot;] (close)&#45;&gt;[root] aws_vpc_security_group_ingress_rule.ingress_https (expand) -->
<g id="edge23" class="edge">
<title>[root] provider[&quot;registry.terraform.io/hashicorp/aws&quot;] (close)&#45;&gt;[root] aws_vpc_security_group_ingress_rule.ingress_https (expand)</title>
<path fill="none" stroke="black" d="M877.3,-360.71C740.6,-334.26 471.06,-282.12 325.79,-254.02"/>
<polygon fill="black" stroke="black" points="326.03,-250.5 315.55,-252.03 324.7,-257.37 326.03,-250.5"/>
</g>
<!-- [root] provider[&quot;registry.terraform.io/hashicorp/aws&quot;] (close)&#45;&gt;[root] aws_vpc_security_group_ingress_rule.ingress_ssh (expand) -->
<g id="edge24" class="edge">
<title>[root] provider[&quot;registry.terraform.io/hashicorp/aws&quot;] (close)&#45;&gt;[root] aws_vpc_security_group_ingress_rule.ingress_ssh (expand)</title>
<path fill="none" stroke="black" d="M804,-362.79C681.92,-351.78 512.08,-336.46 381.26,-324.66"/>
<polygon fill="black" stroke="black" points="381.39,-321.16 371.12,-323.74 380.76,-328.13 381.39,-321.16"/>
</g>
<!-- [root] root -->
<g id="node17" class="node">
<title>[root] root</title>
<ellipse fill="none" stroke="black" cx="1185.5" cy="-450" rx="58.49" ry="18"/>
<text text-anchor="middle" x="1185.5" y="-446.3" font-family="Times,serif" font-size="14.00">[root] root</text>
</g>
<!-- [root] root&#45;&gt;[root] output.DNS (expand) -->
<g id="edge25" class="edge">
<title>[root] root&#45;&gt;[root] output.DNS (expand)</title>
<path fill="none" stroke="black" d="M1225.03,-436.65C1259.42,-425.9 1309.78,-410.16 1349.2,-397.84"/>
<polygon fill="black" stroke="black" points="1350.47,-401.12 1358.97,-394.79 1348.38,-394.43 1350.47,-401.12"/>
</g>
<!-- [root] root&#45;&gt;[root] provider[&quot;registry.terraform.io/hashicorp/aws&quot;] (close) -->
<g id="edge26" class="edge">
<title>[root] root&#45;&gt;[root] provider[&quot;registry.terraform.io/hashicorp/aws&quot;] (close)</title>
<path fill="none" stroke="black" d="M1145.97,-436.65C1112.51,-426.19 1063.92,-411.01 1025.01,-398.85"/>
<polygon fill="black" stroke="black" points="1025.93,-395.47 1015.34,-395.83 1023.84,-402.15 1025.93,-395.47"/>
</g>
</g>
</svg>
