<?xml version="1.0" encoding="UTF-8" standalone="no"?>
<!DOCTYPE svg PUBLIC "-//W3C//DTD SVG 1.1//EN"
 "http://www.w3.org/Graphics/SVG/1.1/DTD/svg11.dtd">
<!-- Generated by graphviz version 2.43.0 (0)
 -->
<!-- Title: %3 Pages: 1 -->
<svg width="709pt" height="548pt"
 viewBox="0.00 0.00 708.50 548.00" xmlns="http://www.w3.org/2000/svg" xmlns:xlink="http://www.w3.org/1999/xlink">
<g id="graph0" class="graph" transform="scale(1 1) rotate(0) translate(4 544)">
<title>%3</title>
<polygon fill="white" stroke="transparent" points="-4,4 -4,-544 704.5,-544 704.5,4 -4,4"/>
<!-- [root] aws_eip.web&#45;eip&#45;1 (expand) -->
<g id="node1" class="node">
<title>[root] aws_eip.web&#45;eip&#45;1 (expand)</title>
<polygon fill="none" stroke="black" points="323.5,-396 177.5,-396 177.5,-360 323.5,-360 323.5,-396"/>
<text text-anchor="middle" x="250.5" y="-374.3" font-family="Times,serif" font-size="14.00">aws_eip.web&#45;eip&#45;1</text>
</g>
<!-- [root] aws_instance.web&#45;server&#45;1 (expand) -->
<g id="node2" class="node">
<title>[root] aws_instance.web&#45;server&#45;1 (expand)</title>
<polygon fill="none" stroke="black" points="293,-324 84,-324 84,-288 293,-288 293,-324"/>
<text text-anchor="middle" x="188.5" y="-302.3" font-family="Times,serif" font-size="14.00">aws_instance.web&#45;server&#45;1</text>
</g>
<!-- [root] aws_eip.web&#45;eip&#45;1 (expand)&#45;&gt;[root] aws_instance.web&#45;server&#45;1 (expand) -->
<g id="edge1" class="edge">
<title>[root] aws_eip.web&#45;eip&#45;1 (expand)&#45;&gt;[root] aws_instance.web&#45;server&#45;1 (expand)</title>
<path fill="none" stroke="black" d="M235.17,-359.7C227.74,-351.3 218.68,-341.07 210.52,-331.86"/>
<polygon fill="black" stroke="black" points="212.9,-329.27 203.65,-324.1 207.66,-333.91 212.9,-329.27"/>
</g>
<!-- [root] aws_internet_gateway.prod&#45;internet&#45;gw&#45;1 (expand) -->
<g id="node3" class="node">
<title>[root] aws_internet_gateway.prod&#45;internet&#45;gw&#45;1 (expand)</title>
<polygon fill="none" stroke="black" points="700.5,-252 388.5,-252 388.5,-216 700.5,-216 700.5,-252"/>
<text text-anchor="middle" x="544.5" y="-230.3" font-family="Times,serif" font-size="14.00">aws_internet_gateway.prod&#45;internet&#45;gw&#45;1</text>
</g>
<!-- [root] aws_eip.web&#45;eip&#45;1 (expand)&#45;&gt;[root] aws_internet_gateway.prod&#45;internet&#45;gw&#45;1 (expand) -->
<g id="edge2" class="edge">
<title>[root] aws_eip.web&#45;eip&#45;1 (expand)&#45;&gt;[root] aws_internet_gateway.prod&#45;internet&#45;gw&#45;1 (expand)</title>
<path fill="none" stroke="black" d="M273.79,-359.78C300.79,-340.39 347.17,-308.87 390.5,-288 417.16,-275.16 447.76,-263.96 474.62,-255.21"/>
<polygon fill="black" stroke="black" points="475.88,-258.48 484.33,-252.09 473.74,-251.81 475.88,-258.48"/>
</g>
<!-- [root] aws_network_interface.web&#45;server&#45;nic (expand) -->
<g id="node4" class="node">
<title>[root] aws_network_interface.web&#45;server&#45;nic (expand)</title>
<polygon fill="none" stroke="black" points="332.5,-252 42.5,-252 42.5,-216 332.5,-216 332.5,-252"/>
<text text-anchor="middle" x="187.5" y="-230.3" font-family="Times,serif" font-size="14.00">aws_network_interface.web&#45;server&#45;nic</text>
</g>
<!-- [root] aws_instance.web&#45;server&#45;1 (expand)&#45;&gt;[root] aws_network_interface.web&#45;server&#45;nic (expand) -->
<g id="edge3" class="edge">
<title>[root] aws_instance.web&#45;server&#45;1 (expand)&#45;&gt;[root] aws_network_interface.web&#45;server&#45;nic (expand)</title>
<path fill="none" stroke="black" d="M188.25,-287.7C188.14,-279.98 188.01,-270.71 187.89,-262.11"/>
<polygon fill="black" stroke="black" points="191.39,-262.05 187.74,-252.1 184.39,-262.15 191.39,-262.05"/>
</g>
<!-- [root] aws_vpc.prod&#45;vpc&#45;1 (expand) -->
<g id="node9" class="node">
<title>[root] aws_vpc.prod&#45;vpc&#45;1 (expand)</title>
<polygon fill="none" stroke="black" points="450.5,-108 294.5,-108 294.5,-72 450.5,-72 450.5,-108"/>
<text text-anchor="middle" x="372.5" y="-86.3" font-family="Times,serif" font-size="14.00">aws_vpc.prod&#45;vpc&#45;1</text>
</g>
<!-- [root] aws_internet_gateway.prod&#45;internet&#45;gw&#45;1 (expand)&#45;&gt;[root] aws_vpc.prod&#45;vpc&#45;1 (expand) -->
<g id="edge4" class="edge">
<title>[root] aws_internet_gateway.prod&#45;internet&#45;gw&#45;1 (expand)&#45;&gt;[root] aws_vpc.prod&#45;vpc&#45;1 (expand)</title>
<path fill="none" stroke="black" d="M537.38,-215.84C528.48,-196.21 511.58,-164.2 488.5,-144 473.32,-130.71 454.25,-120.17 435.98,-112.1"/>
<polygon fill="black" stroke="black" points="437.1,-108.78 426.53,-108.11 434.38,-115.22 437.1,-108.78"/>
</g>
<!-- [root] aws_security_group.allow&#45;web&#45;1 (expand) -->
<g id="node7" class="node">
<title>[root] aws_security_group.allow&#45;web&#45;1 (expand)</title>
<polygon fill="none" stroke="black" points="247,-180 0,-180 0,-144 247,-144 247,-180"/>
<text text-anchor="middle" x="123.5" y="-158.3" font-family="Times,serif" font-size="14.00">aws_security_group.allow&#45;web&#45;1</text>
</g>
<!-- [root] aws_network_interface.web&#45;server&#45;nic (expand)&#45;&gt;[root] aws_security_group.allow&#45;web&#45;1 (expand) -->
<g id="edge5" class="edge">
<title>[root] aws_network_interface.web&#45;server&#45;nic (expand)&#45;&gt;[root] aws_security_group.allow&#45;web&#45;1 (expand)</title>
<path fill="none" stroke="black" d="M171.68,-215.7C163.93,-207.22 154.46,-196.86 145.98,-187.58"/>
<polygon fill="black" stroke="black" points="148.47,-185.12 139.14,-180.1 143.3,-189.85 148.47,-185.12"/>
</g>
<!-- [root] aws_subnet.public&#45;subnet&#45;1 (expand) -->
<g id="node8" class="node">
<title>[root] aws_subnet.public&#45;subnet&#45;1 (expand)</title>
<polygon fill="none" stroke="black" points="480,-180 265,-180 265,-144 480,-144 480,-180"/>
<text text-anchor="middle" x="372.5" y="-158.3" font-family="Times,serif" font-size="14.00">aws_subnet.public&#45;subnet&#45;1</text>
</g>
<!-- [root] aws_network_interface.web&#45;server&#45;nic (expand)&#45;&gt;[root] aws_subnet.public&#45;subnet&#45;1 (expand) -->
<g id="edge6" class="edge">
<title>[root] aws_network_interface.web&#45;server&#45;nic (expand)&#45;&gt;[root] aws_subnet.public&#45;subnet&#45;1 (expand)</title>
<path fill="none" stroke="black" d="M232.76,-215.88C258.5,-206.14 290.91,-193.87 318.04,-183.61"/>
<polygon fill="black" stroke="black" points="319.28,-186.88 327.39,-180.07 316.8,-180.33 319.28,-186.88"/>
</g>
<!-- [root] aws_route_table.prod&#45;route&#45;table&#45;1 (expand) -->
<g id="node5" class="node">
<title>[root] aws_route_table.prod&#45;route&#45;table&#45;1 (expand)</title>
<polygon fill="none" stroke="black" points="665.5,-324 399.5,-324 399.5,-288 665.5,-288 665.5,-324"/>
<text text-anchor="middle" x="532.5" y="-302.3" font-family="Times,serif" font-size="14.00">aws_route_table.prod&#45;route&#45;table&#45;1</text>
</g>
<!-- [root] aws_route_table.prod&#45;route&#45;table&#45;1 (expand)&#45;&gt;[root] aws_internet_gateway.prod&#45;internet&#45;gw&#45;1 (expand) -->
<g id="edge7" class="edge">
<title>[root] aws_route_table.prod&#45;route&#45;table&#45;1 (expand)&#45;&gt;[root] aws_internet_gateway.prod&#45;internet&#45;gw&#45;1 (expand)</title>
<path fill="none" stroke="black" d="M535.47,-287.7C536.79,-279.98 538.38,-270.71 539.85,-262.11"/>
<polygon fill="black" stroke="black" points="543.33,-262.55 541.57,-252.1 536.43,-261.37 543.33,-262.55"/>
</g>
<!-- [root] aws_route_table_association.a (expand) -->
<g id="node6" class="node">
<title>[root] aws_route_table_association.a (expand)</title>
<polygon fill="none" stroke="black" points="573,-396 342,-396 342,-360 573,-360 573,-396"/>
<text text-anchor="middle" x="457.5" y="-374.3" font-family="Times,serif" font-size="14.00">aws_route_table_association.a</text>
</g>
<!-- [root] aws_route_table_association.a (expand)&#45;&gt;[root] aws_route_table.prod&#45;route&#45;table&#45;1 (expand) -->
<g id="edge8" class="edge">
<title>[root] aws_route_table_association.a (expand)&#45;&gt;[root] aws_route_table.prod&#45;route&#45;table&#45;1 (expand)</title>
<path fill="none" stroke="black" d="M476.04,-359.7C485.3,-351.05 496.66,-340.45 506.76,-331.03"/>
<polygon fill="black" stroke="black" points="509.25,-333.49 514.17,-324.1 504.48,-328.37 509.25,-333.49"/>
</g>
<!-- [root] aws_route_table_association.a (expand)&#45;&gt;[root] aws_subnet.public&#45;subnet&#45;1 (expand) -->
<g id="edge9" class="edge">
<title>[root] aws_route_table_association.a (expand)&#45;&gt;[root] aws_subnet.public&#45;subnet&#45;1 (expand)</title>
<path fill="none" stroke="black" d="M426.72,-359.9C413.46,-350.94 399.07,-338.75 390.5,-324 366.27,-282.31 366.42,-224.25 369.16,-190.45"/>
<polygon fill="black" stroke="black" points="372.66,-190.66 370.12,-180.37 365.69,-190 372.66,-190.66"/>
</g>
<!-- [root] aws_security_group.allow&#45;web&#45;1 (expand)&#45;&gt;[root] aws_vpc.prod&#45;vpc&#45;1 (expand) -->
<g id="edge10" class="edge">
<title>[root] aws_security_group.allow&#45;web&#45;1 (expand)&#45;&gt;[root] aws_vpc.prod&#45;vpc&#45;1 (expand)</title>
<path fill="none" stroke="black" d="M184.09,-143.97C219.64,-133.97 264.72,-121.3 301.88,-110.85"/>
<polygon fill="black" stroke="black" points="302.95,-114.19 311.63,-108.11 301.06,-107.45 302.95,-114.19"/>
</g>
<!-- [root] aws_subnet.public&#45;subnet&#45;1 (expand)&#45;&gt;[root] aws_vpc.prod&#45;vpc&#45;1 (expand) -->
<g id="edge11" class="edge">
<title>[root] aws_subnet.public&#45;subnet&#45;1 (expand)&#45;&gt;[root] aws_vpc.prod&#45;vpc&#45;1 (expand)</title>
<path fill="none" stroke="black" d="M372.5,-143.7C372.5,-135.98 372.5,-126.71 372.5,-118.11"/>
<polygon fill="black" stroke="black" points="376,-118.1 372.5,-108.1 369,-118.1 376,-118.1"/>
</g>
<!-- [root] provider[&quot;registry.terraform.io/hashicorp/aws&quot;] -->
<g id="node10" class="node">
<title>[root] provider[&quot;registry.terraform.io/hashicorp/aws&quot;]</title>
<polygon fill="none" stroke="black" points="372.5,-36 47.24,-18 372.5,0 697.76,-18 372.5,-36"/>
<text text-anchor="middle" x="372.5" y="-14.3" font-family="Times,serif" font-size="14.00">provider[&quot;registry.terraform.io/hashicorp/aws&quot;]</text>
</g>
<!-- [root] aws_vpc.prod&#45;vpc&#45;1 (expand)&#45;&gt;[root] provider[&quot;registry.terraform.io/hashicorp/aws&quot;] -->
<g id="edge12" class="edge">
<title>[root] aws_vpc.prod&#45;vpc&#45;1 (expand)&#45;&gt;[root] provider[&quot;registry.terraform.io/hashicorp/aws&quot;]</title>
<path fill="none" stroke="black" d="M372.5,-71.7C372.5,-63.98 372.5,-54.71 372.5,-46.11"/>
<polygon fill="black" stroke="black" points="376,-46.1 372.5,-36.1 369,-46.1 376,-46.1"/>
</g>
<!-- [root] provider[&quot;registry.terraform.io/hashicorp/aws&quot;] (close) -->
<g id="node11" class="node">
<title>[root] provider[&quot;registry.terraform.io/hashicorp/aws&quot;] (close)</title>
<ellipse fill="none" stroke="black" cx="353.5" cy="-450" rx="291.65" ry="18"/>
<text text-anchor="middle" x="353.5" y="-446.3" font-family="Times,serif" font-size="14.00">[root] provider[&quot;registry.terraform.io/hashicorp/aws&quot;] (close)</text>
</g>
<!-- [root] provider[&quot;registry.terraform.io/hashicorp/aws&quot;] (close)&#45;&gt;[root] aws_eip.web&#45;eip&#45;1 (expand) -->
<g id="edge13" class="edge">
<title>[root] provider[&quot;registry.terraform.io/hashicorp/aws&quot;] (close)&#45;&gt;[root] aws_eip.web&#45;eip&#45;1 (expand)</title>
<path fill="none" stroke="black" d="M328.57,-432.05C315.25,-423.01 298.68,-411.74 284.23,-401.93"/>
<polygon fill="black" stroke="black" points="285.8,-398.76 275.56,-396.03 281.86,-404.55 285.8,-398.76"/>
</g>
<!-- [root] provider[&quot;registry.terraform.io/hashicorp/aws&quot;] (close)&#45;&gt;[root] aws_route_table_association.a (expand) -->
<g id="edge14" class="edge">
<title>[root] provider[&quot;registry.terraform.io/hashicorp/aws&quot;] (close)&#45;&gt;[root] aws_route_table_association.a (expand)</title>
<path fill="none" stroke="black" d="M378.68,-432.05C392.24,-422.92 409.17,-411.53 423.85,-401.65"/>
<polygon fill="black" stroke="black" points="425.85,-404.52 432.2,-396.03 421.95,-398.71 425.85,-404.52"/>
</g>
<!-- [root] root -->
<g id="node12" class="node">
<title>[root] root</title>
<ellipse fill="none" stroke="black" cx="353.5" cy="-522" rx="58.49" ry="18"/>
<text text-anchor="middle" x="353.5" y="-518.3" font-family="Times,serif" font-size="14.00">[root] root</text>
</g>
<!-- [root] root&#45;&gt;[root] provider[&quot;registry.terraform.io/hashicorp/aws&quot;] (close) -->
<g id="edge15" class="edge">
<title>[root] root&#45;&gt;[root] provider[&quot;registry.terraform.io/hashicorp/aws&quot;] (close)</title>
<path fill="none" stroke="black" d="M353.5,-503.7C353.5,-495.98 353.5,-486.71 353.5,-478.11"/>
<polygon fill="black" stroke="black" points="357,-478.1 353.5,-468.1 350,-478.1 357,-478.1"/>
</g>
</g>
</svg>
